<?xml version="1.0" encoding="iso-8859-1"?>
<!-- Generator: Adobe Illustrator 19.0.0, SVG Export Plug-In . SVG Version: 6.00 Build 0)  -->
<svg version="1.1" id="Capa_1" xmlns="http://www.w3.org/2000/svg" xmlns:xlink="http://www.w3.org/1999/xlink" x="0px" y="0px"
	 viewBox="0 0 512 512" style="enable-background:new 0 0 512 512;" xml:space="preserve">
<path style="fill:#F3F3F3;" d="M491.52,471.04H20.48C9.216,471.04,0,461.824,0,450.56V180.224h512V450.56
	C512,461.824,502.784,471.04,491.52,471.04z"/>
<path style="fill:#F26F5A;" d="M491.52,91.136H20.48C9.216,91.136,0,100.352,0,111.616v69.632h512v-69.632
	C512,100.352,502.784,91.136,491.52,91.136z"/>
<g>
	<rect x="61.44" y="40.96" style="fill:#425A6B;" width="45.056" height="50.176"/>
	<rect x="176.128" y="40.96" style="fill:#425A6B;" width="45.056" height="50.176"/>
	<rect x="290.816" y="40.96" style="fill:#425A6B;" width="45.056" height="50.176"/>
	<rect x="405.504" y="40.96" style="fill:#425A6B;" width="45.056" height="50.176"/>
</g>
<g>
	<rect x="56.32" y="235.52" style="fill:#56BFEB;" width="58.368" height="58.368"/>
	<rect x="169.984" y="235.52" style="fill:#56BFEB;" width="58.368" height="58.368"/>
	<rect x="283.648" y="235.52" style="fill:#56BFEB;" width="58.368" height="58.368"/>
	<rect x="397.312" y="235.52" style="fill:#56BFEB;" width="58.368" height="58.368"/>
	<rect x="56.32" y="358.4" style="fill:#56BFEB;" width="58.368" height="58.368"/>
	<rect x="169.984" y="358.4" style="fill:#56BFEB;" width="58.368" height="58.368"/>
	<rect x="283.648" y="358.4" style="fill:#56BFEB;" width="58.368" height="58.368"/>
	<rect x="397.312" y="358.4" style="fill:#56BFEB;" width="58.368" height="58.368"/>
</g>
<g>
</g>
<g>
</g>
<g>
</g>
<g>
</g>
<g>
</g>
<g>
</g>
<g>
</g>
<g>
</g>
<g>
</g>
<g>
</g>
<g>
</g>
<g>
</g>
<g>
</g>
<g>
</g>
<g>
</g>
</svg>
