<svg xmlns="http://www.w3.org/2000/svg" x="0px" y="0px" width="32" height="32" viewBox="0 0 50 50" style="fill:#ff3c2d;margin-right:10px;">
    <path d="M 2.8125 0 C 1.277344 0 0 1.277344 0 2.8125 L 0 7.8125 C -0.0078125 7.875 -0.0078125 7.9375 0 8 L 0 40 C 0 40.550781 0.449219 41 1 41 L 19 41 C 19.359375 41.003906 19.695313 40.816406 19.878906 40.503906 C 20.058594 40.191406 20.058594 39.808594 19.878906 39.496094 C 19.695313 39.183594 19.359375 38.996094 19 39 L 2 39 L 2 9 L 42 9 L 42 31 C 41.996094 31.359375 42.183594 31.695313 42.496094 31.878906 C 42.808594 32.058594 43.191406 32.058594 43.503906 31.878906 C 43.816406 31.695313 44.003906 31.359375 44 31 L 44 8 C 44.007813 7.9375 44.007813 7.875 44 7.8125 L 44 2.8125 C 44 1.277344 42.722656 0 41.1875 0 Z M 2.8125 2 L 41.1875 2 C 41.652344 2 42 2.347656 42 2.8125 L 42 7 L 2 7 L 2 2.8125 C 2 2.347656 2.347656 2 2.8125 2 Z M 7 15 L 7 17 L 11 17 L 11 15 Z M 14 15 L 14 17 L 37 17 L 37 15 Z M 7 20 L 7 22 L 11 22 L 11 20 Z M 14 20 L 14 22 L 37 22 L 37 20 Z M 7 25 L 7 27 L 11 27 L 11 25 Z M 14 25 L 14 27 L 37 27 L 37 25 Z M 7 30 L 7 32 L 11 32 L 11 30 Z M 14 30 L 14 32 L 29 32 L 29 30 Z M 36 32 C 28.058594 32 22.1875 40.40625 22.1875 40.40625 C 21.925781 40.757813 21.925781 41.242188 22.1875 41.59375 C 22.1875 41.59375 28.058594 50 36 50 C 43.941406 50 49.8125 41.59375 49.8125 41.59375 C 50.074219 41.242188 50.074219 40.757813 49.8125 40.40625 C 49.8125 40.40625 43.941406 32 36 32 Z M 36 34 C 41.960938 34 46.835938 40 47.625 41 C 46.835938 42 41.960938 48 36 48 C 30.039063 48 25.164063 42 24.375 41 C 25.164063 40 30.039063 34 36 34 Z M 36 35 C 32.699219 35 30 37.699219 30 41 C 30 44.300781 32.699219 47 36 47 C 39.300781 47 42 44.300781 42 41 C 42 37.699219 39.300781 35 36 35 Z M 36 37 C 38.222656 37 40 38.777344 40 41 C 40 43.222656 38.222656 45 36 45 C 33.777344 45 32 43.222656 32 41 C 32 38.777344 33.777344 37 36 37 Z M 36 39 C 34.894531 39 34 39.894531 34 41 C 34 42.105469 34.894531 43 36 43 C 37.105469 43 38 42.105469 38 41 C 38 39.894531 37.105469 39 36 39 Z"></path>
</svg>